# xmcd
#
# Track frame offsets: 
#        150
#        15323
#        30234
#        45199
#        65224
#        81506
#        107260
#        116879
#        131957
#        142751
#        154034
#        161915
#        190279
#        203881
#        219473
#
# Disc length: 3137 seconds
#
# Revision: 0
# Processed by: cddbd v1.5.2PL0 Copyright (c) Steve Scherf et al.
# Submitted via: ExactAudioCopy v0.99pb4
#
DISCID=cb0c3f0f
DTITLE=Zvonko Bogdan - Tko te ima, taj te nema
DYEAR=2007
DGENRE=Country
TTITLE0=Tko te ima, taj te nema
TTITLE1=Zivot zivim kao skitnica
TTITLE2=Dunav tece niz panonske ravni
TTITLE3=Doci cu ti k'o u staroj pismi
TTITLE4=Oj Dunave teci, teci
TTITLE5=Ova nasa livada and Seoska sam lola ja and Temerav and Cetir' konja 
TTITLE5=debala
TTITLE6=Od danas te draga vise ljubit necu
TTITLE7=Evo banke and Nema ljepse djevojke
TTITLE8=Duge su mi noci
TTITLE9=U tom Somboru
TTITLE10=Ta tvoja suknja plava
TTITLE11=Bunjevacko prelo
TTITLE12=Vecernji zvon
TTITLE13=Becarac
TTITLE14=Svirci moji
EXTD=
EXTT0=
EXTT1=
EXTT2=
EXTT3=
EXTT4=
EXTT5=
EXTT6=
EXTT7=
EXTT8=
EXTT9=
EXTT10=
EXTT11=
EXTT12=
EXTT13=
EXTT14=
PLAYORDER=
